# xmcd
# 
# Track frame offsets:
#     150
#     8340
#     26292
#     40785
#     55842
#     68640
#     83507
#     96957
#     107377
#     129832
#     145557
#     163017
#     180117
#     197405
#     221792
# 
# Disc length: 3139
# 
# Revision: 1
# Processed by: cddbd v1.5.2PL0 Copyright (c) Steve Scherf et al.
# Submitted via: BonkEnc v1.0.15
# 
DISCID=a60c410f
DTITLE=Orquestra de Violeiros de Mauá - Volume III
DYEAR=1990
DGENRE=Symphony
TTITLE0=Paisagem Sertaneja
TTITLE1=Mágoa de Boiadeiro
TTITLE2=Canoeiro
TTITLE3=Brasil Caboclo
TTITLE4=Saudade de Matão
TTITLE5=O Céu Chorou Por Mim
TTITLE6=Natureza
TTITLE7=Calix Bento
TTITLE8=Meus Tempos de Criança
TTITLE9=A Grande Esperança
TTITLE10=Cabocla Tereza
TTITLE11=Minha Mãe É Uma Santa
TTITLE12=Chalana
TTITLE13=Coração do Brasil
TTITLE14=Baião da Serra Grande
EXTD=
EXTT0=
EXTT1=
EXTT2=
EXTT3=
EXTT4=
EXTT5=
EXTT6=
EXTT7=
EXTT8=
EXTT9=
EXTT10=
EXTT11=
EXTT12=
EXTT13=
EXTT14=
PLAYORDER=
